# This file uses centimeters as units for non-parametric coordinates.

mtllib GDC_Seed11-07-25.mtl
g default
v -0.033856 0.140285 -0.140285
v -0.033856 0.140285 0.140285
v 0.037241 0.098745 -0.107353
v 0.037241 0.098745 0.107353
v 0.037241 -0.115961 -0.107353
v 0.037241 -0.115961 0.107353
v -0.033856 -0.140285 -0.140285
v -0.033856 -0.140285 0.140285
v -0.033856 0.210541 0.006392
v -0.033856 -0.283876 0.006392
v 0.037241 -0.225843 0.004891
v 0.037241 0.152508 0.004891
v 0.037241 0.011124 -0.138891
v 0.069456 0.002475 0.005507
v 0.037241 0.011124 0.138891
v -0.033856 0.025784 0.181497
v -0.091541 0.008769 0.006392
v -0.033856 0.025784 -0.181497
vt 0.864366 -0.002885
vt 0.864034 0.120290
vt 0.792076 0.124955
vt 0.809090 0.056395
vt 0.941934 0.124955
vt 0.924920 0.056395
vt 0.864366 0.201230
vt 0.809090 0.172226
vt 0.924920 0.172226
vt 0.863557 0.232538
vt 0.791323 0.194636
vt 0.769090 0.132864
vt 0.942686 0.194636
vt 0.964920 0.132864
vt 0.933710 0.148079
vt 0.860422 0.140958
vt 0.860422 0.018474
vt 0.916461 0.078573
vt 0.860422 0.225407
vt 0.916461 0.196002
vt 0.799031 0.078573
vt 0.781782 0.148079
vt 0.799031 0.196002
vt 0.976097 0.088544
vt 0.955602 0.103259
vt 0.932102 0.050543
vt 0.958113 0.048203
vt 0.911782 0.004961
vt 0.942563 0.013322
vt 0.911230 0.068401
vt 0.887729 0.015684
vt 0.912372 0.010277
vt 0.930356 0.050618
vt 0.945906 0.085499
vt 0.931549 0.113982
vn 0.632326 0.774702 -0.000933
vn 0.632355 0.774678 0.001352
vn 0.590975 0.714325 0.374818
vn 0.590975 0.714325 0.374818
vn 0.994330 -0.106177 -0.005769
vn 0.999985 -0.005563 0.000253
vn 0.984014 0.001300 0.178086
vn 0.976803 -0.105405 0.186400
vn 0.632352 -0.774681 0.001095
vn 0.632331 -0.774698 -0.000590
vn 0.496575 -0.591952 0.634827
vn 0.496575 -0.591952 0.634827
vn -0.970893 0.005731 0.239443
vn -0.999935 -0.011368 -0.000227
vn -0.989130 -0.146878 -0.006927
vn -0.956837 -0.143054 0.252979
vn 0.510773 -0.020770 0.859464
vn 0.517797 0.025941 0.855110
vn 0.469649 -0.212642 0.856862
vn 0.469649 -0.212642 0.856862
vn 0.469649 -0.212642 -0.856862
vn 0.517797 0.025941 -0.855110
vn 0.510774 -0.020770 -0.859464
vn 0.469649 -0.212642 -0.856862
vn -0.961818 -0.141974 -0.233987
vn -0.989130 -0.146878 -0.006927
vn -0.999935 -0.011368 -0.000227
vn -0.975136 0.004910 -0.221554
vn 0.494225 -0.621212 -0.608142
vn 0.632331 -0.774698 -0.000590
vn 0.632352 -0.774681 0.001095
vn 0.494226 -0.621212 -0.608142
vn 0.986563 0.000821 -0.163378
vn 0.999985 -0.005563 0.000253
vn 0.994330 -0.106177 -0.005769
vn 0.979821 -0.103683 -0.170880
vn 0.588047 0.729465 -0.349401
vn 0.632355 0.774678 0.001352
vn 0.632326 0.774702 -0.000933
vn 0.588047 0.729465 -0.349401
vn 0.977052 0.151876 -0.149344
vn 0.987939 0.154811 -0.003066
vn 0.999985 -0.005563 0.000253
vn 0.986563 0.000821 -0.163378
vn 0.984014 0.001300 0.178086
vn 0.999985 -0.005563 0.000253
vn 0.987939 0.154811 -0.003066
vn 0.974583 0.154108 0.162602
vn 0.535272 0.286061 0.794766
vn 0.517797 0.025941 0.855110
vn 0.510773 -0.020770 0.859464
vn 0.535272 0.286061 0.794766
vn -0.978596 0.205765 -0.003237
vn -0.999935 -0.011368 -0.000227
vn -0.970893 0.005731 0.239443
vn -0.955856 0.202128 0.213269
vn -0.975136 0.004910 -0.221554
vn -0.999935 -0.011368 -0.000227
vn -0.978596 0.205765 -0.003237
vn -0.959554 0.200733 -0.197386
vn 0.510774 -0.020770 -0.859464
vn 0.517797 0.025941 -0.855110
vn 0.535272 0.286061 -0.794766
vn 0.535272 0.286061 -0.794766
s off
g Seed01
usemtl Seed01SG2
f 12/7/1 9/10/2 2/11/3 4/8/4
f 11/1/5 14/2/6 15/3/7 6/4/8
f 10/28/9 11/29/10 6/27/11 8/26/12
f 16/15/13 17/16/14 10/17/15 8/18/16
f 15/24/17 16/25/18 8/26/19 6/27/20
f 7/30/21 18/31/22 13/32/23 5/33/24
f 7/21/25 10/17/26 17/16/27 18/22/28
f 5/33/29 11/34/30 10/35/31 7/30/32
f 13/5/33 14/2/34 11/1/35 5/6/36
f 1/13/37 9/10/38 12/7/39 3/9/40
f 3/9/41 12/7/42 14/2/43 13/5/44
f 15/3/45 14/2/46 12/7/47 4/8/48
f 2/11/49 16/12/50 15/3/51 4/8/52
f 9/19/53 17/16/54 16/15/55 2/20/56
f 18/22/57 17/16/58 9/19/59 1/23/60
f 13/5/61 18/14/62 1/13/63 3/9/64
