# This file uses centimeters as units for non-parametric coordinates.

mtllib Scenemodels-T_CandleLight.mtl
g default
v -0.959054 0.910076 -0.492973
v -0.959054 0.910076 -0.785903
v -0.959054 1.203006 -0.492973
v -0.959054 1.203006 -0.785903
v -0.711308 0.660197 -0.880189
v -0.830682 0.660197 -0.658038
v -0.711308 0.909604 -0.880189
v -0.830682 0.909604 -0.658038
v -4.347855 1.432585 -2.920022
v -4.347855 1.432585 -3.212951
v -4.347855 1.725514 -2.920022
v -4.347855 1.725514 -3.212951
v -4.100110 1.182706 -3.307237
v -4.219483 1.182706 -3.085086
v -4.100110 1.432112 -3.307237
v -4.219483 1.432112 -3.085086
v -4.043180 1.383331 -3.635785
v -4.043180 1.383331 -3.928714
v -4.043180 1.676261 -3.635785
v -4.043180 1.676261 -3.928714
v -1.898000 2.839026 16.588095
v -2.190753 2.839026 16.598282
v -1.898000 3.131956 16.588095
v -2.190753 3.131956 16.598282
v -2.293598 2.589147 16.353966
v -2.067429 2.589147 16.465542
v -2.293598 2.838554 16.353966
v -2.067429 2.838554 16.465542
v 10.533408 2.180163 -5.105619
v 10.678514 2.180163 -4.851155
v 10.533408 2.473093 -5.105619
v 10.678514 2.473093 -4.851155
v 10.510006 1.930284 -4.646527
v 10.503659 1.930284 -4.898640
v 10.510006 2.179691 -4.646527
v 10.503659 2.179691 -4.898640
v 10.623301 2.130909 -4.332921
v 10.768406 2.130909 -4.078457
v 10.623301 2.423839 -4.332921
v 10.768406 2.423839 -4.078457
vt 0.000000 0.000000
vt 1.000000 0.000000
vt 1.000000 1.000000
vt 0.000000 1.000000
vt 0.000000 0.000000
vt 0.000000 1.000000
vt 1.000000 1.000000
vt 1.000000 0.000000
vt 0.000000 0.000000
vt 1.000000 0.000000
vt 1.000000 1.000000
vt 0.000000 1.000000
vt 0.000000 0.000000
vt 0.000000 1.000000
vt 1.000000 1.000000
vt 1.000000 0.000000
vt 0.000000 0.000000
vt 1.000000 0.000000
vt 1.000000 1.000000
vt 0.000000 1.000000
vt 0.000000 0.000000
vt 1.000000 0.000000
vt 1.000000 1.000000
vt 0.000000 1.000000
vt 0.000000 0.000000
vt 0.000000 1.000000
vt 1.000000 1.000000
vt 1.000000 0.000000
vt 0.000000 0.000000
vt 1.000000 0.000000
vt 1.000000 1.000000
vt 0.000000 1.000000
vt 0.000000 0.000000
vt 0.000000 1.000000
vt 1.000000 1.000000
vt 1.000000 0.000000
vt 0.000000 0.000000
vt 1.000000 0.000000
vt 1.000000 1.000000
vt 0.000000 1.000000
vn 1.000000 0.000000 0.000000
vn 1.000000 0.000000 0.000000
vn 1.000000 0.000000 0.000000
vn 1.000000 0.000000 0.000000
vn 0.880879 0.000000 0.473342
vn 0.880879 0.000000 0.473342
vn 0.880879 0.000000 0.473342
vn 0.880879 0.000000 0.473342
vn 1.000000 0.000000 0.000000
vn 1.000000 0.000000 0.000000
vn 1.000000 0.000000 0.000000
vn 1.000000 0.000000 0.000000
vn 0.880879 0.000000 0.473341
vn 0.880879 0.000000 0.473341
vn 0.880879 0.000000 0.473341
vn 0.880879 0.000000 0.473341
vn 1.000000 0.000000 0.000000
vn 1.000000 0.000000 0.000000
vn 1.000000 0.000000 0.000000
vn 1.000000 0.000000 0.000000
vn -0.034779 0.000000 -0.999395
vn -0.034779 0.000000 -0.999395
vn -0.034779 0.000000 -0.999395
vn -0.034779 0.000000 -0.999395
vn 0.442419 0.000000 -0.896809
vn 0.442419 0.000000 -0.896809
vn 0.442419 0.000000 -0.896809
vn 0.442419 0.000000 -0.896809
vn -0.868688 0.000000 0.495359
vn -0.868688 0.000000 0.495359
vn -0.868688 0.000000 0.495359
vn -0.868688 0.000000 0.495359
vn -0.999683 0.000000 0.025166
vn -0.999683 0.000000 0.025166
vn -0.999683 0.000000 0.025166
vn -0.999683 0.000000 0.025166
vn -0.868688 0.000000 0.495359
vn -0.868688 0.000000 0.495359
vn -0.868688 0.000000 0.495359
vn -0.868688 0.000000 0.495359
s off
g CandleLights
usemtl Candles1SG8
f 1/1/1 2/2/2 4/3/3 3/4/4
f 5/5/5 7/6/6 8/7/7 6/8/8
f 9/9/9 10/10/10 12/11/11 11/12/12
f 13/13/13 15/14/14 16/15/15 14/16/16
f 17/17/17 18/18/18 20/19/19 19/20/20
f 21/21/21 22/22/22 24/23/23 23/24/24
usemtl Candles1SG6
f 25/25/25 27/26/26 28/27/27 26/28/28
usemtl Candles1SG8
f 29/29/29 30/30/30 32/31/31 31/32/32
f 33/33/33 35/34/34 36/35/35 34/36/36
f 37/37/37 38/38/38 40/39/39 39/40/40
g default
v -9.792165 5.276244 14.705250
v -10.273799 5.276244 14.153734
v -9.792165 6.008460 14.705250
v -10.273799 6.008460 14.153734
v -14.535191 5.276244 3.379848
v -14.535191 5.276244 2.647631
v -14.535191 6.008460 3.379848
v -14.535191 6.008460 2.647631
v -14.535191 5.276244 -2.714119
v -14.535191 5.276244 -3.446335
v -14.535191 6.008460 -2.714119
v -14.535191 6.008460 -3.446335
v -10.249210 5.276244 -14.080197
v -9.807816 5.276244 -14.664415
v -10.249210 6.008460 -14.080197
v -9.807816 6.008460 -14.664415
v 0.029344 5.276244 -19.290329
v 0.761007 5.276244 -19.318804
v 0.029344 6.008460 -19.290329
v 0.761007 6.008460 -19.318804
v 10.515012 5.265489 -14.722980
v 10.982139 5.304160 -14.160452
v 10.509502 5.996259 -14.768642
v 10.976630 6.034930 -14.206115
v 15.507808 5.276244 -2.747549
v 15.434177 5.276244 -2.019044
v 15.507808 6.008460 -2.747549
v 15.434177 6.008460 -2.019044
v 15.507808 5.276244 1.918451
v 15.434177 5.276244 2.646956
v 15.507808 6.008460 1.918451
v 15.434177 6.008460 2.646956
v 11.105542 5.276244 14.064132
v 10.614813 5.276244 14.607571
v 11.105542 6.008460 14.064132
v 10.614813 6.008460 14.607571
v 0.769196 5.276244 19.235935
v 0.037219 5.276244 19.217232
v 0.769196 6.008460 19.235935
v 0.037219 6.008460 19.217232
vt 0.000000 0.000000
vt 1.000000 0.000000
vt 1.000000 1.000000
vt 0.000000 1.000000
vt 0.000000 0.000000
vt 1.000000 0.000000
vt 1.000000 1.000000
vt 0.000000 1.000000
vt 0.000000 0.000000
vt 1.000000 0.000000
vt 1.000000 1.000000
vt 0.000000 1.000000
vt 0.000000 0.000000
vt 1.000000 0.000000
vt 1.000000 1.000000
vt 0.000000 1.000000
vt 0.000000 0.000000
vt 1.000000 0.000000
vt 1.000000 1.000000
vt 0.000000 1.000000
vt 0.000000 0.000000
vt 1.000000 0.000000
vt 1.000000 1.000000
vt 0.000000 1.000000
vt 0.000000 0.000000
vt 1.000000 0.000000
vt 1.000000 1.000000
vt 0.000000 1.000000
vt 0.000000 0.000000
vt 1.000000 0.000000
vt 1.000000 1.000000
vt 0.000000 1.000000
vt 0.000000 0.000000
vt 1.000000 0.000000
vt 1.000000 1.000000
vt 0.000000 1.000000
vt 0.000000 0.000000
vt 1.000000 0.000000
vt 1.000000 1.000000
vt 0.000000 1.000000
vn 0.753214 0.000000 -0.657776
vn 0.753214 0.000000 -0.657776
vn 0.753214 0.000000 -0.657776
vn 0.753214 0.000000 -0.657776
vn 1.000000 0.000000 0.000000
vn 1.000000 0.000000 0.000000
vn 1.000000 0.000000 0.000000
vn 1.000000 0.000000 0.000000
vn 1.000000 0.000000 0.000000
vn 1.000000 0.000000 0.000000
vn 1.000000 0.000000 0.000000
vn 1.000000 0.000000 0.000000
vn 0.797877 0.000000 0.602821
vn 0.797877 0.000000 0.602821
vn 0.797877 0.000000 0.602821
vn 0.797877 0.000000 0.602821
vn 0.038888 0.000000 0.999244
vn 0.038888 0.000000 0.999244
vn 0.038888 0.000000 0.999244
vn 0.038888 0.000000 0.999244
vn -0.770030 0.034005 0.637101
vn -0.770030 0.034005 0.637101
vn -0.770030 0.034005 0.637101
vn -0.770030 0.034005 0.637101
vn -0.994931 0.000000 -0.100558
vn -0.994931 0.000000 -0.100558
vn -0.994931 0.000000 -0.100558
vn -0.994931 0.000000 -0.100558
vn -0.994931 0.000000 -0.100558
vn -0.994931 0.000000 -0.100558
vn -0.994931 0.000000 -0.100558
vn -0.994931 0.000000 -0.100558
vn -0.742184 0.000000 -0.670197
vn -0.742184 0.000000 -0.670197
vn -0.742184 0.000000 -0.670197
vn -0.742184 0.000000 -0.670197
vn 0.025543 0.000000 -0.999674
vn 0.025543 0.000000 -0.999674
vn 0.025543 0.000000 -0.999674
vn 0.025543 0.000000 -0.999674
s off
g SconceLights
usemtl Candles1SG8
f 41/41/41 42/42/42 44/43/43 43/44/44
f 45/45/45 46/46/46 48/47/47 47/48/48
f 49/49/49 50/50/50 52/51/51 51/52/52
f 53/53/53 54/54/54 56/55/55 55/56/56
f 57/57/57 58/58/58 60/59/59 59/60/60
f 61/61/61 62/62/62 64/63/63 63/64/64
f 65/65/65 66/66/66 68/67/67 67/68/68
f 69/69/69 70/70/70 72/71/71 71/72/72
f 73/73/73 74/74/74 76/75/75 75/76/76
f 77/77/77 78/78/78 80/79/79 79/80/80
